<?xml version="1.0" encoding="utf-8"?>
<!-- Generator: Adobe Illustrator 24.1.0, SVG Export Plug-In . SVG Version: 6.00 Build 0)  -->
<svg version="1.1" id="Capa_1" xmlns="http://www.w3.org/2000/svg" xmlns:xlink="http://www.w3.org/1999/xlink" x="0px" y="0px"
	 viewBox="0 0 512 512" style="enable-background:new 0 0 512 512;" xml:space="preserve">
<path d="M256,0C114.8,0,0,114.8,0,256s114.8,256,256,256s256-114.8,256-256S397.2,0,256,0z M256,480C132.5,480,32,379.5,32,256
	C32,132.5,132.5,32,256,32c123.5,0,224,100.5,224,224C480,379.5,379.5,480,256,480z M256,64c-13.4,0-26.6,1.4-39.2,4
	c23.3,33,44.4,67.4,63.1,103c35.2-16.4,68.4-37.6,98.7-62.9C345.2,80.6,302.6,64,256,64z M401.3,130.8
	c-32.9,27.7-69.2,50.8-107.6,68.7c8.4,17.5,16.2,35.3,23.5,53.3c42.5-8.7,86.7-9.5,130.6-2.3C446.4,204.8,429.2,163.1,401.3,130.8z
	 M184.6,77.9C127,101,83.3,151.1,69.1,212.7c62.1,2.7,123.6-7.7,180.9-29.6C230.8,146.7,209,111.5,184.6,77.9z M264.3,212.1
	c-55.4,21.6-114.6,33.4-174.8,33.4c-8.3,0-16.6-0.5-24.9-1c-0.2,3.8-0.6,7.6-0.6,11.5c0,47.1,17.1,90.3,45.2,123.7
	c46.1-57.2,108.1-98.3,176.7-118.9C279.3,244.4,272,228.2,264.3,212.1z M328.9,283.1c15.3,42.6,27.2,86.3,36,130.9
	c43.3-29.9,73.5-77,81.1-131.5C406.7,275.6,367.1,276,328.9,283.1z M297.5,290.6C233,309.4,174.7,348.1,132,402.4
	c33.5,28.4,76.7,45.6,124,45.6c28.4,0,55.3-6.3,79.6-17.4C326.8,382.8,314,336,297.5,290.6z"/>
</svg>
