<?xml version="1.0" encoding="utf-8"?>
<!-- Generator: Adobe Illustrator 24.1.0, SVG Export Plug-In . SVG Version: 6.00 Build 0)  -->
<svg version="1.1" id="Bold" xmlns="http://www.w3.org/2000/svg" xmlns:xlink="http://www.w3.org/1999/xlink" x="0px" y="0px"
	 viewBox="0 0 512 512" style="enable-background:new 0 0 512 512;" xml:space="preserve">
<path d="M256.1,124.5c-72.6,0-131.4,58.8-131.4,131.4c0,72.6,58.8,131.4,131.4,131.4c72.6,0,131.4-58.8,131.4-131.4
	C387.5,183.3,328.6,124.5,256.1,124.5L256.1,124.5z M256.1,341.2c-47.1,0-85.3-38.2-85.3-85.3s38.2-85.3,85.3-85.3
	s85.3,38.2,85.3,85.3C341.4,303,303.2,341.2,256.1,341.2z M361.6,1.6c-47.1-2.2-163.8-2.1-210.9,0C109.2,3.6,72.7,13.6,43.2,43
	C-6,92.3,0.3,158.6,0.3,255.9c0,99.6-5.5,164.4,42.9,212.9c49.4,49.4,116.7,42.9,212.9,42.9c98.6,0,132.7,0.1,167.6-13.4
	c47.4-18.4,83.2-60.8,86.7-136.9c2.2-47.1,2.1-163.8,0-210.9C506.2,60.6,457.9,6.1,361.6,1.6L361.6,1.6z M436.1,436.2
	c-32.3,32.3-77.1,29.4-180.7,29.4c-106.7,0-149.4,1.6-180.7-29.7c-35.9-35.8-29.4-93.2-29.4-180.3c0-117.9-12.1-202.8,106.2-208.8
	c27.2-1,35.2-1.3,103.6-1.3l1,0.6c113.7,0,202.9-11.9,208.2,106.4c1.2,27,1.5,35.1,1.5,103.4C465.8,361.3,467.8,404.4,436.1,436.2
	L436.1,436.2z M392.7,88.7c17,0,30.7,13.7,30.7,30.7s-13.7,30.7-30.7,30.7S362,136.3,362,119.4S375.7,88.7,392.7,88.7z"/>
</svg>
